<?xml version="1.0" standalone="no"?>
<!DOCTYPE svg PUBLIC "-//W3C//DTD SVG 20010904//EN"
 "http://www.w3.org/TR/2001/REC-SVG-20010904/DTD/svg10.dtd">
<svg version="1.0" xmlns="http://www.w3.org/2000/svg"
 width="1696.000000pt" height="1696.000000pt" viewBox="0 0 1696.000000 1696.000000"
 preserveAspectRatio="xMidYMid meet">
<metadata>
Created by potrace 1.14, written by Peter Selinger 2001-2017
</metadata>
<g transform="translate(0.000000,1696.000000) scale(0.100000,-0.100000)"
fill="#000000" stroke="none">
<path d="M10057 11139 c-144 -34 -229 -148 -229 -309 1 -87 4 -104 30 -162 54
-122 203 -185 366 -155 96 17 165 69 214 162 23 44 26 61 26 150 0 82 -4 108
-21 145 -23 47 -99 126 -143 147 -66 32 -164 41 -243 22z"/>
<path d="M2266 11063 c-1 -1 -29 -5 -61 -8 -33 -3 -78 -8 -100 -11 -22 -3 -51
-7 -65 -9 -14 -2 -41 -7 -60 -11 -19 -3 -44 -8 -55 -9 -11 -2 -20 -4 -20 -5 0
-1 -7 -3 -15 -5 -45 -8 -213 -57 -260 -76 -30 -11 -68 -25 -85 -31 -62 -23
-258 -128 -352 -190 -265 -175 -484 -404 -660 -693 -39 -64 -141 -273 -136
-279 4 -3 1 -6 -5 -6 -6 0 -15 -15 -21 -32 -5 -18 -25 -78 -44 -133 -46 -130
-71 -223 -112 -419 -2 -10 -7 -39 -10 -65 -4 -25 -9 -57 -11 -71 -2 -14 -6
-45 -9 -70 -3 -25 -7 -58 -10 -75 -26 -177 -21 -707 9 -895 3 -19 8 -57 12
-85 11 -93 30 -189 54 -280 10 -38 21 -81 23 -95 9 -47 79 -245 120 -340 170
-394 453 -743 777 -960 36 -24 67 -46 70 -49 9 -10 200 -108 265 -136 66 -28
78 -33 130 -50 28 -10 57 -20 65 -23 8 -3 20 -6 25 -7 6 -1 35 -8 65 -17 108
-32 288 -63 435 -75 152 -13 531 -5 595 12 8 2 33 6 55 10 215 30 459 105 638
196 88 44 219 119 227 129 3 4 20 15 38 25 17 11 32 23 32 27 0 4 6 8 14 8 8
0 16 3 18 8 1 4 30 30 63 57 187 157 348 362 463 590 58 114 123 283 113 290
-4 2 -34 13 -67 25 -32 12 -68 25 -79 30 -11 5 -66 27 -123 49 l-103 39 -15
-29 c-8 -16 -13 -29 -10 -29 9 0 -76 -197 -121 -280 -56 -104 -140 -230 -153
-230 -6 0 -10 -5 -10 -11 0 -15 -90 -110 -184 -194 -67 -60 -159 -121 -281
-185 -280 -147 -670 -216 -1057 -186 -110 9 -278 36 -343 56 -16 5 -55 17 -85
26 -79 24 -252 94 -271 110 -8 8 -20 14 -26 14 -10 0 -193 116 -203 129 -3 3
-21 18 -40 32 -72 54 -266 257 -294 308 -5 9 -12 18 -16 21 -29 20 -240 394
-240 425 0 4 -6 21 -14 38 -14 30 -68 191 -72 212 -1 6 -7 30 -15 55 -7 25
-13 50 -14 55 0 6 -4 26 -9 45 -4 19 -8 42 -10 50 -2 8 -6 31 -9 50 -12 60
-17 93 -23 140 -3 25 -7 58 -10 75 -27 213 -22 696 11 890 6 39 12 73 19 125
5 29 9 50 31 145 43 185 118 387 205 551 29 55 56 101 59 104 3 3 12 16 20 30
73 133 301 379 446 481 90 64 142 96 168 105 9 4 17 10 17 15 0 5 6 9 14 9 8
0 30 9 48 20 32 19 168 77 198 86 8 2 52 15 97 28 131 40 261 64 393 72 82 5
308 4 365 -1 121 -13 153 -17 220 -29 244 -46 448 -135 640 -280 36 -28 195
-184 220 -217 75 -98 95 -127 95 -137 0 -5 4 -12 9 -14 21 -8 171 -328 171
-365 0 -26 22 -21 117 23 54 26 136 64 183 86 47 22 87 41 88 43 2 2 -3 18
-11 37 -8 18 -36 83 -63 143 -26 61 -52 117 -59 125 -6 8 -17 30 -25 48 -7 17
-16 32 -20 32 -4 0 -10 8 -13 18 -11 42 -141 206 -243 307 -61 60 -117 115
-125 120 -251 188 -453 282 -749 351 -107 25 -113 26 -216 40 -22 3 -52 7 -69
9 -88 13 -549 28 -559 18z"/>
<path d="M6877 9833 c-2 -1 -30 -5 -63 -7 -71 -6 -179 -21 -179 -26 0 -1 -11
-3 -25 -5 -97 -14 -286 -75 -405 -131 -173 -81 -320 -186 -455 -323 -148 -150
-236 -273 -339 -476 -19 -38 -36 -72 -36 -75 -1 -3 -5 -12 -8 -20 -11 -26 -88
-260 -93 -283 -3 -12 -9 -44 -14 -72 -6 -27 -13 -61 -16 -75 -3 -14 -7 -43
-10 -65 -2 -22 -6 -49 -9 -60 -11 -54 -19 -208 -19 -370 0 -217 11 -356 39
-510 3 -16 7 -39 9 -50 19 -109 82 -309 136 -430 10 -22 19 -44 21 -50 5 -20
104 -182 152 -250 92 -130 230 -275 333 -350 15 -11 43 -32 62 -47 19 -16 41
-28 48 -28 8 0 14 -4 14 -9 0 -5 12 -16 28 -24 113 -59 235 -119 250 -123 9
-2 57 -18 106 -35 78 -27 173 -51 256 -65 14 -2 34 -6 45 -9 112 -24 495 -25
635 -1 14 3 42 7 62 10 21 3 57 11 80 16 24 6 54 13 68 16 138 28 413 157 559
262 221 157 418 396 538 652 55 117 67 145 69 157 1 7 9 32 17 55 33 91 71
234 69 255 -1 2 3 16 8 33 5 17 12 53 15 82 4 28 9 60 11 72 25 122 24 655 -1
728 -2 7 -7 38 -10 68 -9 75 -18 121 -30 160 -3 10 -7 27 -9 37 -2 10 -10 38
-17 63 -7 25 -14 52 -15 61 -20 101 -214 484 -286 563 -10 11 -18 23 -18 26 0
12 -81 101 -170 188 -140 137 -333 261 -515 333 -44 17 -89 35 -100 40 -37 15
-269 69 -325 74 -30 3 -68 8 -85 11 -30 6 -373 13 -378 7z m343 -337 c292 -29
579 -160 782 -359 95 -93 213 -249 258 -342 8 -16 18 -32 21 -35 11 -9 86
-203 107 -275 19 -66 35 -134 47 -197 3 -16 7 -38 10 -50 30 -153 37 -576 11
-713 -2 -11 -7 -42 -10 -70 -4 -27 -13 -78 -21 -111 -8 -34 -16 -73 -19 -87
-8 -47 -76 -234 -107 -298 -95 -193 -224 -362 -369 -480 -23 -19 -52 -42 -63
-52 -12 -11 -42 -31 -67 -45 -25 -14 -48 -31 -52 -37 -4 -5 -8 -7 -8 -2 0 4
-17 -3 -37 -16 -21 -13 -40 -25 -43 -25 -6 -1 -79 -30 -105 -42 -24 -11 -149
-46 -190 -54 -37 -7 -99 -16 -145 -22 -77 -11 -310 -9 -402 3 -313 40 -562
159 -774 368 -76 76 -184 204 -184 220 0 2 -12 21 -26 42 -47 70 -141 284
-159 363 -1 8 -10 40 -19 70 -16 59 -46 212 -52 270 -19 192 -19 540 0 636 2
12 7 45 11 75 16 140 82 360 148 499 42 89 155 270 169 270 4 0 8 5 8 12 0 21
196 205 276 259 116 78 297 162 397 184 12 2 40 9 62 14 51 12 95 19 170 27
33 3 61 7 62 8 6 5 242 -1 313 -8z"/>
<path d="M13378 9835 c-2 -2 -37 -6 -78 -9 -41 -4 -93 -11 -115 -16 -22 -5
-53 -11 -70 -14 -62 -12 -75 -15 -179 -50 -149 -50 -412 -184 -424 -217 -2 -5
-10 -9 -17 -9 -8 0 -65 -51 -127 -112 -114 -114 -201 -231 -254 -342 -15 -31
-29 -54 -32 -52 -3 3 -6 56 -8 118 -1 62 -5 212 -9 333 -4 121 -7 234 -6 252
1 17 -3 34 -8 37 -6 4 -47 6 -93 6 -88 0 -188 1 -197 2 -3 0 -16 0 -28 -1
l-23 -1 0 -1920 0 -1920 33 -1 c17 -1 36 0 42 1 12 2 125 2 140 0 26 -4 159 1
164 6 3 3 6 522 7 1152 0 631 4 1172 8 1202 4 30 9 69 12 85 3 17 7 41 9 55 8
51 16 82 41 163 28 90 121 287 135 287 5 0 9 5 9 11 0 18 87 132 157 205 67
69 189 168 241 195 15 8 29 16 32 19 8 8 172 87 225 108 61 25 170 54 250 67
115 20 156 22 290 20 82 -2 161 -6 175 -9 14 -3 45 -10 70 -15 76 -16 89 -19
153 -42 63 -22 218 -95 227 -107 3 -4 25 -20 49 -37 112 -76 226 -213 288
-346 31 -65 77 -206 87 -264 3 -16 8 -41 11 -55 3 -14 8 -47 12 -75 4 -27 8
-626 10 -1330 2 -713 8 -1284 12 -1288 7 -7 152 -11 189 -6 4 1 12 0 17 -1 18
-3 157 0 164 4 8 5 6 2649 -2 2691 -3 17 -9 55 -12 85 -3 30 -10 71 -15 90 -5
19 -11 46 -14 60 -7 36 -45 159 -63 200 -31 71 -38 86 -75 149 -21 34 -38 67
-38 71 0 5 -3 10 -7 12 -5 2 -26 26 -48 53 -57 72 -129 140 -215 204 -41 31
-77 59 -80 62 -22 25 -329 159 -400 174 -8 2 -37 9 -65 15 -83 19 -137 29
-211 36 -50 6 -342 13 -346 9z"/>
<path d="M9990 9760 l-35 -5 0 -1908 c0 -1050 2 -1913 5 -1918 6 -9 30 -11
118 -9 28 1 56 -1 61 -5 5 -3 12 -1 16 5 4 6 10 8 15 5 5 -3 44 -6 87 -7 l78
-1 2 1919 3 1919 -28 5 c-15 3 -44 3 -64 -1 -21 -3 -40 -4 -42 -2 -7 7 -174 9
-216 3z"/>
<path d="M16322 6523 c-106 -43 -186 -142 -199 -248 -17 -142 17 -261 97 -333
81 -73 231 -101 358 -67 58 16 75 27 124 76 59 59 72 81 94 159 14 50 11 158
-4 208 -27 83 -95 159 -182 200 -79 38 -200 40 -288 5z"/>
</g>
</svg>
